<?xml version="1.0" encoding="UTF-8" standalone="no"?>
<!-- Created with Inkscape (http://www.inkscape.org/) -->

<svg
   xmlns:dc="http://purl.org/dc/elements/1.1/"
   xmlns:cc="http://creativecommons.org/ns#"
   xmlns:rdf="http://www.w3.org/1999/02/22-rdf-syntax-ns#"
   xmlns:svg="http://www.w3.org/2000/svg"
   xmlns="http://www.w3.org/2000/svg"
   xmlns:sodipodi="http://sodipodi.sourceforge.net/DTD/sodipodi-0.dtd"
   xmlns:inkscape="http://www.inkscape.org/namespaces/inkscape"
   width="210mm"
   height="297mm"
   viewBox="0 0 210 297"
   version="1.1"
   id="svg8"
   inkscape:version="0.92.2 (5c3e80d, 2017-08-06)"
   sodipodi:docname="Yoda One For Me By FreeSVGs.com.svg">
  <defs
     id="defs2" />
  <sodipodi:namedview
     id="base"
     pagecolor="#ffffff"
     bordercolor="#666666"
     borderopacity="1.0"
     inkscape:pageopacity="0.0"
     inkscape:pageshadow="2"
     inkscape:zoom="0.49497475"
     inkscape:cx="760.15819"
     inkscape:cy="674.55703"
     inkscape:document-units="mm"
     inkscape:current-layer="layer1"
     showgrid="false"
     inkscape:snap-global="false" />
  <metadata
     id="metadata5">
    <rdf:RDF>
      <cc:Work
         rdf:about="">
        <dc:format>image/svg+xml</dc:format>
        <dc:type
           rdf:resource="http://purl.org/dc/dcmitype/StillImage" />
        <dc:title></dc:title>
      </cc:Work>
    </rdf:RDF>
  </metadata>
  <g
     inkscape:label="Layer 1"
     inkscape:groupmode="layer"
     id="layer1">
    <g
       id="g2270">
      <path
         inkscape:connector-curvature="0"
         id="path979"
         d="m 35.364825,102.24605 c -1.114768,0 -2.112336,0.14014 -2.99272,0.42027 -0.880384,0.2744 -1.623633,0.68029 -2.229615,1.21767 -0.605977,0.53738 -1.066168,1.20051 -1.380592,1.98943 -0.314419,0.7832 -0.471588,1.69213 -0.471588,2.72687 0,1.36631 0.274412,2.52397 0.823225,3.47296 0.548809,0.94326 1.354873,1.6579 2.418193,2.14382 1.069036,0.48022 2.346736,0.72029 3.833097,0.72029 1.486361,0 2.764061,-0.24007 3.833102,-0.72029 1.074756,-0.48021 1.895055,-1.19777 2.461015,-2.15248 0.565959,-0.9547 0.848881,-2.10943 0.848881,-3.4643 0,-1.35488 -0.282922,-2.50682 -0.848881,-3.4558 -0.56596,-0.9547 -1.386259,-1.67507 -2.461015,-2.161 -1.074756,-0.49164 -2.352457,-0.73744 -3.833102,-0.73744 z m -20.606192,0.0944 v 3.68719 h 2.5726 v 8.6953 h 4.030322 v -5.11075 h 4.253221 v -2.16099 h -4.253221 v -1.42356 h 6.58577 v -3.68719 z m 28.332369,0 v 12.38249 h 4.476246 v -4.09044 l 3.927376,4.09044 h 7.803454 v -3.68734 h -6.620083 l -0.926027,-1.18336 c 0.960424,-0.22868 1.697815,-0.54315 2.21233,-0.94332 0.514505,-0.40017 0.874614,-0.89749 1.080416,-1.49204 0.205812,-0.59455 0.194365,-1.44066 -0.03431,-2.53828 -0.297266,-0.73175 -0.765973,-1.31477 -1.406247,-1.74925 -0.640284,-0.43446 -1.457799,-0.69744 -2.452513,-0.7889 z m 18.728206,0 v 3.68719 h 2.572462 v 8.6953 h 4.03032 v -5.14507 l 2.589758,5.14507 h 0.222892 l 2.589758,-5.14507 v 5.14507 h 4.030326 v -8.6953 h 1.874495 v 8.6953 H 91.391428 V 111.0356 H 83.75954 v -1.42341 h 4.253224 V 107.4512 H 83.75954 v -1.42356 h 6.585632 v -3.68719 H 77.854724 73.824398 l -2.692696,5.14506 -2.709712,-5.14506 z m -14.25196,3.087 h 3.112807 c 0.137201,0 0.305816,0.0772 0.505894,0.23154 0.205807,0.14864 0.323047,0.46018 0.351634,0.93467 -0.01144,0.49736 -0.11444,0.8089 -0.30881,0.93467 -0.194365,0.12005 -0.374422,0.18007 -0.540211,0.18007 h -3.121314 z m -12.228226,0.24005 c 1.120488,0 1.85509,0.29731 2.203811,0.89185 0.348722,0.58883 0.540226,1.28057 0.574527,2.07521 -0.03431,0.56024 -0.102832,1.04039 -0.205738,1.44057 -0.09718,0.39445 -0.348705,0.74605 -0.754596,1.05475 -0.400174,0.30871 -1.00622,0.46309 -1.818004,0.46309 -1.051885,0 -1.757874,-0.29437 -2.11803,-0.8832 -0.354437,-0.58883 -0.531706,-1.28058 -0.531706,-2.07521 0,-1.978 0.883252,-2.96706 2.649736,-2.96706 z"
         style="font-style:normal;font-variant:normal;font-weight:normal;font-stretch:normal;font-size:65.06500244px;line-height:125%;font-family:'Star Jedi';-inkscape-font-specification:'Star Jedi, Normal';font-variant-ligatures:normal;font-variant-caps:normal;font-variant-numeric:normal;font-feature-settings:normal;text-align:start;letter-spacing:0px;word-spacing:0px;writing-mode:lr-tb;text-anchor:start;fill:#000000;fill-opacity:1;stroke:none;stroke-width:0.19513257px;stroke-linecap:butt;stroke-linejoin:miter;stroke-opacity:1" />
      <path
         inkscape:connector-curvature="0"
         id="path965"
         d="m 70.0469,2.0501427 c -1.114775,0 -2.112337,0.1399973 -2.992729,0.4201197 -0.880376,0.274407 -1.623491,0.6803021 -2.22947,1.2176739 -0.605979,0.5373782 -1.066308,1.2005184 -1.380729,1.9894313 -0.314426,0.7831982 -0.471588,1.6921313 -0.471588,2.7268701 0,1.3663083 0.274407,2.5239673 0.823217,3.4729553 0.54881,0.943268 1.354877,1.65791 2.418197,2.143834 1.069032,0.48021 2.346742,0.720283 3.833102,0.720283 1.48636,0 2.764059,-0.240073 3.833091,-0.720283 1.074757,-0.480209 1.895196,-1.197644 2.461156,-2.152342 0.56596,-0.954704 0.848886,-2.1095744 0.848886,-3.4644468 0,-1.3548783 -0.282926,-2.5068163 -0.848886,-3.4558049 C 75.775187,3.9937353 74.954748,3.2735115 73.879991,2.7875869 72.805235,2.2959416 71.527541,2.0501427 70.0469,2.0501427 Z m -45.41638,0.089128 c -0.354166,0.00426 -0.721764,0.036701 -1.103024,0.036701 -1.114768,0 -2.112336,0.014183 -2.992719,0.2943096 -0.880385,0.2744012 -1.623639,0.6802963 -2.229616,1.217674 -0.605977,0.5373777 -1.066167,1.200513 -1.380592,1.9894259 -0.314419,0.7831976 -0.471583,1.6921313 -0.471583,2.7268695 0,1.3663089 0.274407,2.5239733 0.823221,3.4729613 0.548808,0.943268 1.354872,1.657904 2.418192,2.143833 1.069035,0.48021 2.346736,0.720283 3.833097,0.720283 1.486366,0 2.764062,-0.240073 3.833097,-0.720283 1.074756,-0.480209 1.895055,-1.197644 2.46102,-2.152342 0.565959,-0.954704 0.848881,-2.109574 0.848881,-3.4644523 0,-0.8710512 -0.117567,-1.6577177 -0.351489,-2.3610072 h 0.934663 V 14.73854 h 7.100181 c 1.131919,0.02284 2.072398,-0.09159 2.821299,-0.343128 0.754611,-0.251536 1.392065,-0.605924 1.912292,-1.063267 0.520226,-0.457343 0.937565,-1.080418 1.251987,-1.869337 0.314422,-0.788913 0.502995,-1.7465641 0.565877,-2.8727683 0,-1.0033841 -0.118752,-1.8510169 -0.355538,-2.5438648 h 2.770804 l -2.855469,8.6951531 h 4.441934 l 0.780261,-2.229478 h 3.678841 l 0.780258,2.229478 h 4.681983 L 54.686611,2.1759775 H 37.204381 25.253584 C 25.050666,2.1446929 24.843021,2.1368327 24.63052,2.1392765 Z m 53.285516,0.00529 V 14.527052 h 4.030326 V 9.8965383 l 3.687193,4.6305137 h 4.030326 V 5.8319099 h 1.53151 V 14.527063 H 102.8576 V 10.839746 H 95.225711 V 9.4163328 h 4.253364 V 7.2553429 H 95.225711 V 5.8319347 h 6.585779 V 2.1445937 H 93.094017 85.633555 V 6.7751066 L 81.946362,2.1445931 Z M 3.2924608,2.3589796 v 3.6873356 h 2.5726057 l 2.8812731,4.1504208 v 4.544732 H 12.793679 V 10.196736 L 18.196087,2.3589796 H 13.308228 L 10.787096,6.1834284 8.2317906,2.3589796 Z M 51.62526,5.1029998 53.263198,10.008016 H 49.850212 Z M 35.386933,5.4260396 h 2.34092 c 0.543093,0 0.983322,0.1143157 1.320613,0.342985 0.33729,0.2229534 0.611702,0.5344936 0.82322,0.934668 0.217244,0.3944592 0.334497,1.0090195 0.351638,1.8436708 -0.05716,0.9146808 -0.188652,1.5492076 -0.394454,1.9036436 -0.205808,0.348727 -0.471701,0.637512 -0.797561,0.866187 -0.325855,0.222953 -0.754637,0.334337 -1.2863,0.334337 h -2.358076 z m -11.885241,0.045732 c 1.120489,0 1.855091,0.2973049 2.203812,0.8918461 0.348722,0.588826 0.540225,1.2804416 0.574527,2.0750698 -0.03431,0.5602442 -0.102837,1.0405334 -0.205738,1.4407078 -0.09718,0.3944587 -0.348705,0.7460587 -0.754595,1.0547627 -0.400175,0.308704 -1.006226,0.46308 -1.818006,0.46308 -1.051884,0 -1.757873,-0.294649 -2.118029,-0.883475 -0.354437,-0.5888316 -0.531705,-1.2804419 -0.531705,-2.0750755 0,-1.9780008 0.883251,-2.9669159 2.649734,-2.9669159 z m 46.519539,0 c 1.120483,0 1.855085,0.2971614 2.203812,0.891708 0.348727,0.588826 0.540227,1.2805797 0.574522,2.0752079 -0.03431,0.5602442 -0.102977,1.0405334 -0.205877,1.4407078 -0.09718,0.3944587 -0.3487,0.7460587 -0.754596,1.0547627 -0.400166,0.308704 -1.00608,0.46308 -1.817861,0.46308 -1.051887,0 -1.758016,-0.294511 -2.118174,-0.883337 C 67.548617,9.9250694 67.3715,9.233321 67.3715,8.4386874 c 0,-1.9780008 0.883251,-2.9669159 2.649731,-2.9669158 z"
         style="font-style:normal;font-variant:normal;font-weight:normal;font-stretch:normal;font-size:65.06500244px;line-height:125%;font-family:'Star Jedi';-inkscape-font-specification:'Star Jedi, Normal';font-variant-ligatures:normal;font-variant-caps:normal;font-variant-numeric:normal;font-feature-settings:normal;text-align:start;letter-spacing:0px;word-spacing:0px;writing-mode:lr-tb;text-anchor:start;fill:#000000;fill-opacity:1;stroke:none;stroke-width:0.19513257px;stroke-linecap:butt;stroke-linejoin:miter;stroke-opacity:1" />
      <g
         id="g2257">
        <path
           inkscape:connector-curvature="0"
           style="color:#000000;font-style:normal;font-variant:normal;font-weight:normal;font-stretch:normal;font-size:medium;line-height:normal;font-family:sans-serif;font-variant-ligatures:normal;font-variant-position:normal;font-variant-caps:normal;font-variant-numeric:normal;font-variant-alternates:normal;font-feature-settings:normal;text-indent:0;text-align:start;text-decoration:none;text-decoration-line:none;text-decoration-style:solid;text-decoration-color:#000000;letter-spacing:normal;word-spacing:normal;text-transform:none;writing-mode:lr-tb;direction:ltr;text-orientation:mixed;dominant-baseline:auto;baseline-shift:baseline;text-anchor:start;white-space:normal;shape-padding:0;clip-rule:nonzero;display:inline;overflow:visible;visibility:visible;opacity:1;isolation:auto;mix-blend-mode:normal;color-interpolation:sRGB;color-interpolation-filters:linearRGB;solid-color:#000000;solid-opacity:1;vector-effect:none;fill:#a5b35d;fill-opacity:1;fill-rule:evenodd;stroke:none;stroke-width:0.62922335;stroke-linecap:butt;stroke-linejoin:miter;stroke-miterlimit:4;stroke-dasharray:none;stroke-dashoffset:0;stroke-opacity:1;color-rendering:auto;image-rendering:auto;shape-rendering:auto;text-rendering:auto;enable-background:accumulate"
           d="m 94.712432,15.658035 c -0.617751,-0.0057 -1.340214,0.110322 -2.139598,0.35628 l -0.0074,0.0026 -0.0074,0.0026 C 85.528062,18.568978 78.520782,21.361318 71.547963,22.406202 65.658921,18.9819 60.10616,16.70482 54.40153,17.243441 c -5.708961,0.539024 -11.514205,3.917153 -17.884798,11.60379 -4.383754,0.4191 -11.922953,0.131844 -17.914448,0.198999 -3.015187,0.03378 -5.628278,0.15539 -7.293852,0.523716 -0.832786,0.184158 -1.4468953,0.399989 -1.7769996,0.842938 -0.1650573,0.221471 -0.2228207,0.523094 -0.143827,0.79875 0.07901,0.27566 0.261452,0.52778 0.5308446,0.789136 l 0.01838,0.017 0.022254,0.01482 c 3.812392,2.644142 7.399504,6.466106 11.340825,9.354671 3.228171,2.365911 6.735546,4.069882 10.778147,3.956681 1.28152,-8.623494 36.587341,-7.488367 45.467094,-6.396561 2.145235,-0.181508 4.198806,-0.758568 6.02108,-2.157442 3.922106,-1.962613 5.615492,-5.334851 7.022111,-8.791983 1.411485,-3.469084 2.565632,-7.029792 5.379058,-9.545165 0.490098,-0.438179 0.77317,-0.873904 0.82345,-1.318621 0.05028,-0.444712 -0.186094,-0.859367 -0.566537,-1.101224 -0.380443,-0.241863 -0.893852,-0.369394 -1.511576,-0.374944 z M 33.656038,71.88571 c 0.253639,0.142078 0.521151,0.275239 0.805889,0.397178 l 0.05929,-0.147672 C 34.22089,72.060086 33.93279,71.976753 33.656035,71.88571 Z"
           id="path1770" />
        <path
           sodipodi:nodetypes="ccccccccccaccccccccccccscsccccccccsscccccc"
           inkscape:connector-curvature="0"
           id="path1774"
           d="m 32.942215,48.625908 c 0.242213,0.379088 0.174655,0.758868 -0.07725,1.251717 -0.251918,0.492849 -0.692556,1.035207 -1.084615,1.575191 -0.392031,0.539989 -0.759922,1.078058 -0.768915,1.67773 -0.0043,0.299834 0.104606,0.609863 0.335305,0.865071 0.160059,0.177047 0.443825,0.30724 0.711278,0.443864 -1.526256,2.06393 -3.350603,5.721522 -3.641794,9.322841 -0.151077,1.868087 0.116732,3.708509 1.10041,5.234019 0.929479,1.441512 2.561335,2.534892 4.924202,3.126024 L 28.61399,86.666487 c 0,0 0.0066,0.03998 -0.0016,0.05722 -0.358813,0.755048 -0.904185,1.468622 -1.899628,1.637366 -0.898815,0.147031 -1.768538,0.455474 -2.800456,1.313618 -0.911123,0.757638 -1.229764,1.482346 -1.410852,2.043127 -0.09056,0.28039 -0.15207,0.515853 -0.234655,0.69625 -0.07758,0.169435 -0.165498,0.292335 -0.326832,0.409586 0.01779,-0.006 0.03378,-0.01262 0.05179,-0.01872 l -0.08132,0.0417 c 0.01105,-0.0076 0.01907,-0.01527 0.02948,-0.02287 -0.72834,0.251906 -1.20933,0.533381 -1.496575,0.881498 -0.294246,0.356581 -0.333472,0.808252 -0.177004,1.167018 0.312938,0.717523 1.166365,1.19415 1.971734,1.488793 h 0.0016 c 10.95394,3.936407 24.684509,4.481477 37.143736,3.531936 12.459223,-0.949531 23.635525,-3.393861 29.510454,-5.495192 1.535124,-0.54908 2.399407,-1.180474 2.757612,-1.915098 0.358216,-0.734623 0.128597,-1.506018 -0.334128,-2.131796 -0.92546,-1.251561 -2.736464,-2.175079 -3.709982,-2.45924 -2.494209,-3.459813 -3.251545,-11.233331 -8.125103,-16.396338 -0.0072,0.01246 -0.0043,0.0038 -0.0043,-0.041 0.0016,0.01257 0.0032,0.02849 0.0043,0.041 0.0065,-0.01117 0.02136,-0.03954 0.05707,-0.0779 0.07818,-0.08399 0.214568,-0.204696 0.387677,-0.344999 0.346181,-0.280622 0.843578,-0.64917 1.399137,-1.102157 1.111133,-0.905958 2.459871,-2.150236 3.360051,-3.78177 0.90017,-1.631524 1.338348,-3.66303 0.619687,-6.052068 -0.704105,-2.340679 -2.520687,-5.019747 -5.997121,-8.069715 1.08062,-1.283224 1.485631,-2.613139 1.295577,-3.914893 -0.198314,-1.358405 -0.942389,-2.671444 -1.882491,-3.9673 0.24329,-2.329638 2.556606,-3.667041 0.159752,-5.036026 -6.02299,-1.229446 -54.360521,-3.422385 -45.939131,9.477449 z"
           style="color:#000000;font-style:normal;font-variant:normal;font-weight:normal;font-stretch:normal;font-size:medium;line-height:normal;font-family:sans-serif;font-variant-ligatures:normal;font-variant-position:normal;font-variant-caps:normal;font-variant-numeric:normal;font-variant-alternates:normal;font-feature-settings:normal;text-indent:0;text-align:start;text-decoration:none;text-decoration-line:none;text-decoration-style:solid;text-decoration-color:#000000;letter-spacing:normal;word-spacing:normal;text-transform:none;writing-mode:lr-tb;direction:ltr;text-orientation:mixed;dominant-baseline:auto;baseline-shift:baseline;text-anchor:start;white-space:normal;shape-padding:0;clip-rule:nonzero;display:inline;overflow:visible;visibility:visible;opacity:1;isolation:auto;mix-blend-mode:normal;color-interpolation:sRGB;color-interpolation-filters:linearRGB;solid-color:#000000;solid-opacity:1;vector-effect:none;fill:#c3ad86;fill-opacity:1;fill-rule:evenodd;stroke:none;stroke-width:0.65994143;stroke-linecap:butt;stroke-linejoin:miter;stroke-miterlimit:4;stroke-dasharray:none;stroke-dashoffset:0;stroke-opacity:1;color-rendering:auto;image-rendering:auto;shape-rendering:auto;text-rendering:auto;enable-background:accumulate" />
        <path
           style="fill:#e9afaf;fill-opacity:1;fill-rule:evenodd;stroke:none;stroke-width:0.14053556px;stroke-linecap:butt;stroke-linejoin:miter;stroke-opacity:1"
           d="m 37.392337,39.542168 c -2.047636,-1.619586 -1.426829,-4.974927 -1.405349,-7.629071 -7.296885,1.62571 -23.247317,-4.292075 -23.891059,-0.803063 7.261616,7.143152 17.538,18.010082 25.296408,8.432134 z"
           id="path1797"
           inkscape:connector-curvature="0"
           sodipodi:nodetypes="cccc" />
        <path
           sodipodi:nodetypes="cccc"
           inkscape:connector-curvature="0"
           id="path1799"
           d="M 74.750127,37.146953 C 75.975766,34.841807 74.462233,29.206868 73.377501,26.78441 80.713494,25.345397 91.543335,15.331277 93.533048,18.268735 89.748127,27.725484 83.491509,40.196693 74.750127,37.146953 Z"
           style="fill:#e9afaf;fill-opacity:1;fill-rule:evenodd;stroke:none;stroke-width:0.14053556px;stroke-linecap:butt;stroke-linejoin:miter;stroke-opacity:1" />
        <path
           style="opacity:1;fill:#000000;fill-opacity:1;fill-rule:nonzero;stroke:none;stroke-width:0.34935674;stroke-linecap:round;stroke-linejoin:round;stroke-miterlimit:4;stroke-dasharray:none;stroke-dashoffset:0;stroke-opacity:1;paint-order:normal"
           d="m 48.828227,25.76272 c -0.585358,0.01636 -1.255039,0.167469 -2.021575,0.491601 -4.82245,2.280733 -2.004516,6.825495 -0.179507,7.428895 0.03322,0.01099 -0.923206,1.020832 -0.448238,0.783926 1.720057,-1.717186 4.716822,-2.833724 6.704544,-2.328444 0,0 0.04235,-6.490485 -4.055224,-6.375978 z m 14.157029,0 c -3.880464,0.115118 -3.839733,6.375978 -3.839733,6.375978 1.987706,-0.50528 4.984471,0.611258 6.704524,2.328444 0.474976,0.236906 -0.481192,-0.772936 -0.447954,-0.783926 1.825009,-0.6034 4.642946,-5.148162 -0.179524,-7.428895 -0.862335,-0.364648 -1.602327,-0.510438 -2.237313,-0.491601 z m -7.019916,6.005425 c -1.371223,0 -1.96255,0.852836 -1.96255,1.38477 0,0.531939 0.705978,-0.356995 2.057256,-0.06039 1.371224,0.300986 2.104467,0.531933 2.104467,0 0,-0.531939 -0.827938,-1.324384 -2.199173,-1.324384 z"
           id="path1809"
           inkscape:connector-curvature="0" />
        <path
           sodipodi:nodetypes="ssccs"
           inkscape:connector-curvature="0"
           id="path1819"
           d="m 47.913924,27.715142 c -0.51322,0.08073 -1.240817,-0.783585 -0.05216,-1.364693 1.788744,-0.874467 3.632096,0.606041 3.989476,2.14283 0.04801,0.359604 -0.194084,0.279298 -0.390596,0.245432 -0.586136,-0.476029 -2.331186,-1.214764 -3.546731,-1.023569 z"
           style="fill:#ffffff;fill-opacity:1;fill-rule:evenodd;stroke:none;stroke-width:0.14053556px;stroke-linecap:butt;stroke-linejoin:miter;stroke-opacity:1" />
        <path
           style="fill:#ffffff;fill-opacity:1;fill-rule:evenodd;stroke:none;stroke-width:0.13491006px;stroke-linecap:butt;stroke-linejoin:miter;stroke-opacity:1"
           d="m 64.431931,28.24118 c -0.431181,-0.157324 -0.642653,-1.570018 0.502733,-1.583849 1.794658,-0.02167 3.169873,2.883721 2.462472,4.133844 -0.09633,0.367577 -0.433118,0.179584 -0.574106,0.05709 -0.280925,-0.72577 -1.369864,-2.234466 -2.39111,-2.607089 z"
           id="path1856"
           inkscape:connector-curvature="0"
           sodipodi:nodetypes="csccsc" />
        <path
           inkscape:connector-curvature="0"
           id="path1900"
           d="m 58.555022,74.263581 c -0.01354,-0.01462 -0.06054,-0.101946 -0.104427,-0.194052 -0.404213,-0.849156 -1.58488,-2.144107 -2.980505,-3.269003 -1.083739,-0.873519 -1.813189,-1.339513 -3.75834,-2.400923 -1.5184,-0.828542 -1.885178,-1.042468 -2.575269,-1.502075 -1.935391,-1.289001 -2.972761,-2.605893 -3.349538,-4.252112 -0.125878,-0.549975 -0.139861,-1.890044 -0.02795,-2.679652 0.142164,-1.003242 0.508254,-2.032909 1.00842,-2.836279 0.164057,-0.26351 0.483239,-0.689393 0.686814,-0.91644 0.224206,-0.250034 0.757046,-0.723942 1.021103,-0.908159 0.778383,-0.543032 1.610939,-0.890043 2.506339,-1.044653 0.592228,-0.10227 1.631966,-0.105194 2.250078,-0.0066 0.618004,0.09883 1.316164,0.33149 1.907442,0.635661 1.11832,0.575293 2.055271,1.426677 2.817112,2.559822 0.132243,0.196695 0.46929,0.77748 0.544218,0.937766 0.02546,0.05456 0.05071,0.09897 0.05599,0.09878 0.0056,-1.94e-4 0.102356,-0.1693 0.215637,-0.375798 0.211072,-0.384759 0.446793,-0.750468 0.671062,-1.041158 1.244046,-1.612415 2.987366,-2.595799 4.9512,-2.792894 0.292545,-0.02935 0.904512,-0.03339 1.19361,-0.0083 2.285387,0.201664 4.176083,1.5061 5.155254,3.556753 0.302682,0.633918 0.5501,1.469377 0.639794,2.160421 0.100829,0.776806 0.08236,2.084592 -0.03658,2.599565 -0.370257,1.601922 -1.383572,2.886759 -3.273087,4.150129 -0.654203,0.437418 -1.119717,0.714425 -2.468768,1.469091 -1.156332,0.646866 -1.800527,1.039895 -2.4494,1.494398 -1.900035,1.330908 -3.747136,3.112025 -4.364142,4.208258 -0.04429,0.07869 -0.09911,0.187449 -0.121847,0.241721 -0.05174,0.123519 -0.07995,0.151934 -0.114198,0.115076 z"
           style="fill:#e9afaf;fill-opacity:1;stroke:none;stroke-width:0.01829781" />
      </g>
    </g>
  </g>
</svg>
